<?xml version="1.0" encoding="utf-8"?>
<svg viewBox="62.93 138.017 368.087 177.002" xmlns="http://www.w3.org/2000/svg" xmlns:bx="https://boxy-svg.com">
  <ellipse style="fill: rgb(130, 208, 210);" transform="matrix(-0.707106, 0.707108, -0.707106, -0.707106, 342.031502, 217.085712)" cx="110.915" cy="170.568" rx="7.87" ry="7.87"/>
  <ellipse style="fill: rgb(130, 208, 210);" transform="matrix(-0.707105, 0.707107, -0.707108, -0.707108, 349.630927, 272.727815)" cx="110.915" cy="170.568" rx="7.87" ry="7.87"/>
  <ellipse style="fill: rgb(130, 208, 210);" transform="matrix(-0.707105, 0.707107, -0.707108, -0.707108, 377.82685, 235.887086)" cx="110.915" cy="170.568" rx="7.87" ry="7.87"/>
  <ellipse style="fill: rgb(130, 208, 210);" transform="matrix(-0.707105, 0.707107, -0.707105, -0.707105, 396.317774, 272.947476)" cx="110.915" cy="170.568" rx="7.87" ry="7.87"/>
  <ellipse style="fill: rgb(130, 208, 210);" transform="matrix(-0.707103, 0.707111, -0.707109, -0.707105, 446.165664, 285.81904)" cx="110.915" cy="170.568" rx="7.87" ry="7.87"/>
  <ellipse style="fill: rgb(130, 208, 210);" transform="matrix(-0.707108, 0.707106, -0.707107, -0.707105, 553.286402, 278.021602)" cx="110.915" cy="170.567" rx="7.87" ry="7.87"/>
  <ellipse style="fill: rgb(130, 208, 210);" transform="matrix(-0.707107, 0.707107, -0.707107, -0.707103, 539.034877, 307.934391)" cx="110.915" cy="170.568" rx="7.87" ry="7.87"/>
  <ellipse style="fill: rgb(130, 208, 210);" transform="matrix(-0.707107, 0.707107, -0.707107, -0.707107, 513.78086, 274.115451)" cx="110.915" cy="170.567" rx="7.87" ry="7.87"/>
  <ellipse style="fill: rgb(130, 208, 210);" transform="matrix(-0.707107, 0.707107, -0.707107, -0.707103, 491.106013, 318.434727)" cx="110.915" cy="170.568" rx="7.87" ry="7.87"/>
  <line style="stroke: rgb(0, 0, 0);" x1="104.938232421875" y1="174.49734497070312" x2="375.240234375" y2="272.1982727050781"/>
  <path d="M 294.157 269.126 L 302.939 285.252 L 285.376 285.252 L 294.157 269.126 Z" style="" transform="matrix(-0.630754, -0.775984, 0.775979, -0.630758, 347.618986, 678.531067)" bx:shape="triangle 285.376 269.126 17.563 16.126 0.5 0 1@26db9a89"/>
</svg>